<?xml version="1.0" encoding="utf-8"?>
<!-- Generator: Adobe Illustrator 22.0.1, SVG Export Plug-In . SVG Version: 6.00 Build 0)  -->
<svg version="1.1" xmlns="http://www.w3.org/2000/svg" xmlns:xlink="http://www.w3.org/1999/xlink" x="0px" y="0px"
	 viewBox="0 0 560 288" style="enable-background:new 0 0 560 288;" xml:space="preserve">
<style type="text/css">
	.st0{display:none;}
	.st1{display:inline;fill:#00796B;}
	.st2{fill:#FF6700;}
	.st3{fill:#FFFFFF;}
	.st4{display:inline;fill:#06C406;}
</style>
<g id="Layer_3" class="st0">
	<rect class="st1" width="560" height="288"/>
</g>
<g id="Layer_1">
	<g>
		<path class="st2" d="M76.2,142.6c0-9.1,2.2-16.2,6.5-21.4c4.3-5.2,10.6-7.7,18.9-7.7c3.9,0,7.3,0.6,10.1,1.8
			c2.8,1.2,5.2,2.8,7.1,4.9c1.9,2,3.3,4.4,4.3,7.1c0.9,2.7,1.4,5.6,1.4,8.7c0,0.7,0,1.5-0.1,2.2c0,0.7-0.1,1.4-0.2,2.2
			c-4-0.1-7.9-0.1-11.8-0.2c-3.9-0.1-7.9-0.1-11.8-0.1c-2.4,0-4.9,0-7.2,0.1c-2.4,0.1-4.8,0.1-7.2,0.2c-0.1,0.4-0.1,0.9-0.1,1.7v1.4
			c0,2.9,0.4,5.6,1.3,8.1c0.8,2.5,2.1,4.7,3.7,6.5c1.6,1.8,3.6,3.2,6,4.3c2.4,1.1,5.1,1.6,8.2,1.6c1.5,0,3-0.2,4.5-0.6
			c1.5-0.4,3.1-1,4.5-1.7c1.5-0.7,2.9-1.5,4.1-2.5c1.3-1,2.4-2,3.4-3.1l0.6,0.3l-0.7,5.4c-2.2,1.8-5,3.3-8.2,4.5
			c-3.3,1.3-6.7,1.9-10.2,1.9c-4,0-7.6-0.6-10.9-1.8c-3.3-1.2-6.1-3-8.5-5.3c-2.4-2.3-4.2-5.1-5.5-8.2
			C76.8,149.7,76.2,146.3,76.2,142.6z M101.8,117c-2.7,0-5,0.6-6.9,1.9c-1.9,1.3-3.4,2.8-4.6,4.7c-1.2,1.9-2.1,3.9-2.8,6.2
			c-0.6,2.3-1,4.4-1.2,6.4c2.3,0.1,4.7,0.1,7.1,0.2c2.5,0.1,4.9,0.1,7.2,0.1c2.4,0,4.9,0,7.4-0.1c2.5-0.1,4.9-0.1,7.3-0.2
			c0-2-0.2-4.1-0.5-6.3c-0.3-2.2-1-4.3-2-6.2c-1-1.9-2.4-3.5-4.1-4.8C107,117.6,104.6,117,101.8,117z"/>
		<path class="st3" d="M204.9,119.9c3.3-2.5,6.4-4.2,9.2-5.1c2.8-0.9,5.7-1.3,8.6-1.3c2.7,0,5.1,0.4,7.3,1.2
			c2.2,0.8,4.1,1.9,5.6,3.3c1.5,1.4,2.8,3.2,3.7,5.2c0.9,2,1.3,4.3,1.3,6.7c0,4.2-0.1,8.4-0.2,12.6c-0.1,4.2-0.2,8.6-0.2,13.2
			c0,0.9,0,1.8,0.1,2.8c0,1,0.2,1.9,0.5,2.7c0.3,0.8,0.7,1.4,1.3,1.9c0.6,0.5,1.4,0.8,2.5,0.8c0.4,0,0.8,0,1.2-0.1
			c0.4,0,0.8-0.2,1.2-0.4v2.4c-0.8,0.4-1.8,0.7-3,0.9c-1.2,0.2-2.6,0.3-4,0.3c-2.4,0-4.2-0.6-5.4-1.8c-1.3-1.2-2-2.8-2.2-4.7
			c-2.7,2.7-5.3,4.6-7.9,5.9c-2.6,1.3-5.8,1.9-9.5,1.9c-1.8,0-3.7-0.3-5.4-0.8c-1.8-0.5-3.3-1.4-4.7-2.5c-1.4-1.2-2.5-2.6-3.3-4.3
			c-0.8-1.7-1.3-3.6-1.3-5.7c0-4.4,1.4-7.9,4.1-10.3c2.8-2.4,6.6-4.1,11.5-4.9c4-0.7,7.1-1.2,9.4-1.7c2.2-0.5,3.9-1,5-1.5
			c1.1-0.5,1.7-1.1,1.9-1.8c0.2-0.7,0.3-1.6,0.3-2.7c0-1.8-0.2-3.6-0.7-5.3c-0.4-1.7-1.1-3.2-2.1-4.4c-1-1.3-2.2-2.3-3.8-3
			c-1.5-0.8-3.4-1.2-5.6-1.2c-3,0-5.7,0.7-8.2,2c-2.5,1.3-4.4,3.2-5.7,5.5h-1.2V119.9z M232.2,139.6c-1.3,0.4-2.7,0.8-4.4,1.1
			c-1.7,0.3-3.3,0.6-5,0.9c-1.7,0.3-3.4,0.8-5,1.3c-1.7,0.5-3.1,1.2-4.4,2.1c-1.3,0.9-2.3,2-3.1,3.3c-0.8,1.3-1.2,3-1.2,5.1
			c0,3.5,1,6.1,3,7.9c2,1.8,4.2,2.7,6.6,2.7c2.8,0,5.4-0.8,7.7-2.3c2.3-1.5,4.1-3.4,5.4-5.4L232.2,139.6z"/>
		<path class="st3" d="M255.4,141c0-4.8,0.8-8.9,2.4-12.4c1.6-3.5,3.7-6.3,6.4-8.6c2.6-2.2,5.6-3.9,9-5c3.4-1.1,6.9-1.6,10.4-1.6
			c4.1,0,7.7,0.5,10.9,1.5s5.5,2.1,6.9,3.4c-0.5,1.1-1,2.3-1.4,3.5c-0.4,1.2-0.8,2.5-1.1,3.8h-0.9c-0.5-1-1.2-1.9-2.1-2.9
			c-0.9-1-1.9-1.9-3.2-2.8c-1.2-0.8-2.6-1.5-4-2.1c-1.5-0.6-3.1-0.8-4.9-0.8c-3.3,0-6.2,0.6-8.6,1.8c-2.4,1.2-4.4,2.9-5.9,5
			c-1.5,2.1-2.6,4.7-3.3,7.6c-0.7,2.9-1.1,6.1-1.1,9.5c0,7.6,1.6,13.3,4.9,17.2c3.2,3.9,8,5.8,14.3,5.8c1.5,0,3-0.2,4.5-0.6
			c1.5-0.4,3.1-1,4.5-1.7c1.5-0.7,2.9-1.5,4.2-2.5c1.3-1,2.4-2,3.4-3.1l0.6,0.3c-0.4,1.8-0.6,3.6-0.7,5.4c-2.2,1.8-5,3.3-8.2,4.5
			c-3.3,1.3-6.7,1.9-10.2,1.9c-3.2,0-6.4-0.5-9.6-1.4c-3.2-0.9-6.1-2.5-8.7-4.6c-2.6-2.2-4.7-5-6.3-8.5
			C256.2,150.3,255.4,146,255.4,141z"/>
		<path class="st3" d="M310.7,141c0-4.8,0.8-8.9,2.4-12.4c1.6-3.5,3.7-6.3,6.4-8.6c2.6-2.2,5.6-3.9,9-5c3.4-1.1,6.9-1.6,10.4-1.6
			c4.1,0,7.7,0.5,10.9,1.5s5.5,2.1,6.9,3.4c-0.5,1.1-1,2.3-1.4,3.5c-0.4,1.2-0.8,2.5-1.1,3.8h-0.9c-0.5-1-1.2-1.9-2.1-2.9
			c-0.9-1-1.9-1.9-3.2-2.8c-1.2-0.8-2.6-1.5-4-2.1c-1.5-0.6-3.1-0.8-4.9-0.8c-3.3,0-6.2,0.6-8.6,1.8c-2.4,1.2-4.4,2.9-5.9,5
			c-1.5,2.1-2.6,4.7-3.3,7.6c-0.7,2.9-1.1,6.1-1.1,9.5c0,7.6,1.6,13.3,4.9,17.2c3.2,3.9,8,5.8,14.3,5.8c1.5,0,3-0.2,4.5-0.6
			c1.5-0.4,3.1-1,4.5-1.7c1.5-0.7,2.9-1.5,4.1-2.5c1.3-1,2.4-2,3.4-3.1l0.6,0.3c-0.4,1.8-0.6,3.6-0.7,5.4c-2.2,1.8-5,3.3-8.2,4.5
			c-3.3,1.3-6.7,1.9-10.2,1.9c-3.2,0-6.4-0.5-9.6-1.4c-3.2-0.9-6.1-2.5-8.7-4.6c-2.6-2.2-4.7-5-6.3-8.5
			C311.5,150.3,310.7,146,310.7,141z"/>
		<path class="st2" d="M371.1,95.3c0-1.5,0.6-2.9,1.7-4c1.1-1.1,2.4-1.7,4-1.7s2.9,0.6,4,1.7c1.1,1.1,1.7,2.4,1.7,4s-0.6,2.9-1.7,4
			c-1.1,1.1-2.4,1.7-4,1.7s-2.9-0.6-4-1.7C371.7,98.2,371.1,96.9,371.1,95.3z M372.7,135.3c0-3.3-0.1-6.8-0.2-10.5
			c-0.1-3.7-0.4-7.1-0.7-10.2c2.1,0.4,3.7,0.6,5,0.6c1.3,0,2.9-0.2,5-0.6c-0.4,3.2-0.6,6.6-0.7,10.2c-0.1,3.7-0.2,7.1-0.2,10.5v11.5
			c0,3.3,0.1,6.8,0.2,10.5c0.1,3.7,0.3,7,0.7,9.9c-1.7-0.1-3.4-0.2-5-0.2c-1.6,0-3.3,0.1-5,0.2c0.4-3,0.6-6.3,0.7-9.9
			c0.1-3.7,0.2-7.1,0.2-10.5V135.3z"/>
		<path class="st3" d="M433.4,123.5c-2.1-2.8-5.1-4.3-8.9-4.3c-5.2,0-8.9,1.6-11.3,4.8c-2.4,3.2-3.6,7.6-3.6,13.4v9.4
			c0,3.3,0.1,6.8,0.2,10.5c0.1,3.7,0.3,7,0.7,9.9c-1.7-0.1-3.4-0.2-5-0.2c-1.6,0-3.3,0.1-5,0.2c0.4-3,0.6-6.3,0.7-9.9
			c0.1-3.7,0.2-7.1,0.2-10.5v-11.5c0-3.3-0.1-6.8-0.2-10.5c-0.1-3.7-0.4-7.1-0.7-10.2c2.1,0.4,3.7,0.6,5,0.6c0.6,0,1.2-0.1,1.9-0.2
			c0.7-0.1,1.5-0.2,2.5-0.4c-0.2,3-0.3,5.9-0.3,8.9h0.2c2.1-3.2,4.5-5.6,7.4-7.4c2.9-1.7,6.3-2.6,10.3-2.6c2.1,0,4.2,0.3,6.3,0.9
			c2.1,0.6,4,1.6,5.7,3c1.7,1.4,3.1,3.4,4.1,5.9c1.1,2.5,1.6,5.6,1.6,9.5c0,3.2-0.1,6.4-0.2,9.8c-0.1,3.4-0.2,6.9-0.2,10.7v7.2
			c0,1.2,0,2.3,0.1,3.5c0,1.1,0.1,2.2,0.2,3.3c-1.5-0.1-3-0.2-4.6-0.2c-1.5,0-3.1,0.1-4.5,0.2c0.1-3.8,0.3-7.8,0.5-11.8
			c0.2-4.1,0.3-8.2,0.3-12.5V136C436.6,130.5,435.6,126.3,433.4,123.5z"/>
		<path class="st3" d="M457.5,142.6c0-9.1,2.2-16.2,6.5-21.4c4.3-5.2,10.6-7.7,18.9-7.7c3.9,0,7.3,0.6,10.1,1.8
			c2.8,1.2,5.2,2.8,7.1,4.9c1.9,2,3.3,4.4,4.3,7.1c0.9,2.7,1.4,5.6,1.4,8.7c0,0.7,0,1.5-0.1,2.2c0,0.7-0.1,1.4-0.2,2.2
			c-4-0.1-7.9-0.1-11.8-0.2c-3.9-0.1-7.9-0.1-11.8-0.1c-2.4,0-4.9,0-7.2,0.1c-2.4,0.1-4.8,0.1-7.2,0.2c-0.1,0.4-0.1,0.9-0.1,1.7v1.4
			c0,2.9,0.4,5.6,1.3,8.1c0.8,2.5,2.1,4.7,3.7,6.5c1.6,1.8,3.6,3.2,6,4.3c2.4,1.1,5.1,1.6,8.2,1.6c1.5,0,3-0.2,4.5-0.6
			c1.5-0.4,3.1-1,4.5-1.7c1.5-0.7,2.9-1.5,4.1-2.5c1.3-1,2.4-2,3.4-3.1l0.6,0.3l-0.7,5.4c-2.2,1.8-5,3.3-8.2,4.5
			c-3.3,1.3-6.7,1.9-10.2,1.9c-4,0-7.6-0.6-10.9-1.8c-3.3-1.2-6.1-3-8.5-5.3c-2.4-2.3-4.2-5.1-5.5-8.2
			C458.2,149.7,457.5,146.3,457.5,142.6z M483.1,117c-2.7,0-5,0.6-6.9,1.9c-1.9,1.3-3.4,2.8-4.6,4.7c-1.2,1.9-2.1,3.9-2.8,6.2
			c-0.6,2.3-1,4.4-1.2,6.4c2.3,0.1,4.7,0.1,7.1,0.2c2.5,0.1,4.9,0.1,7.2,0.1c2.4,0,4.9,0,7.4-0.1c2.5-0.1,4.9-0.1,7.3-0.2
			c0-2-0.2-4.1-0.5-6.3s-1-4.3-2-6.2c-1-1.9-2.4-3.5-4.2-4.8C488.3,117.6,486,117,483.1,117z"/>
		<path class="st3" d="M372.7,135.3c0-3.3-0.1-6.8-0.2-10.5c-0.1-3.7-0.4-7.1-0.7-10.2c2.1,0.4,3.7,0.6,5,0.6c1.3,0,2.9-0.2,5-0.6
			c-0.4,3.2-0.6,6.6-0.7,10.2c-0.1,3.7-0.2,7.1-0.2,10.5v11.5c0,3.3,0.1,6.8,0.2,10.5c0.1,3.7,0.3,7,0.7,9.9c-1.7-0.1-3.4-0.2-5-0.2
			c-1.6,0-3.3,0.1-5,0.2c0.4-3,0.6-6.3,0.7-9.9c0.1-3.7,0.2-7.1,0.2-10.5V135.3z"/>
	</g>
	<g>
		<path class="st3" d="M220.4,72.4c0,0,0-0.1-0.1-0.1C220.4,72.3,220.4,72.4,220.4,72.4z"/>
		<path class="st3" d="M208.1,83.7l0.1-0.2C208.1,83.6,208.1,83.7,208.1,83.7z"/>
		<path class="st3" d="M228.1,66.1C228.1,66.1,228.1,66.1,228.1,66.1c0.1-0.1,0.3-0.2,0.6-0.4L228.1,66.1z"/>
		<path class="st3" d="M185.8,111.4l0.1-0.2C185.9,111.3,185.8,111.4,185.8,111.4z"/>
		<path class="st3" d="M198.6,94.6c0,0.1,0,0.2-0.1,0.3C198.6,94.8,198.6,94.7,198.6,94.6z"/>
		<path class="st3" d="M234,65.1l-0.3,0C233.7,65.1,233.8,65.1,234,65.1z"/>
		<path class="st3" d="M241.6,58.6C241.6,58.6,241.6,58.6,241.6,58.6C241.5,58.6,241.6,58.6,241.6,58.6z"/>
		<path class="st3" d="M237.9,60.2c-0.1,0.1-0.1,0.1-0.2,0.2C237.8,60.3,238,60.3,237.9,60.2z"/>
		<path class="st3" d="M237.7,60.5l0.1-0.1C237.7,60.5,237.6,60.5,237.7,60.5z"/>
		<path class="st3" d="M132.4,91c-0.2-0.2-0.4-0.4-0.7-0.5L132.4,91z"/>
		<path class="st3" d="M169.6,139.2L169.6,139.2C169.5,139.2,169.5,139.2,169.6,139.2z"/>
		<path class="st3" d="M130.8,91.7l-0.1-0.2C130.8,91.6,130.8,91.6,130.8,91.7z"/>
		<path class="st3" d="M230.2,68.7c-0.1,0.3-0.7,0.5-0.6,0.7C229.8,69.2,230.2,69,230.2,68.7z"/>
		<path class="st3" d="M172.7,148.4l-0.1,0.2C172.7,148.5,172.7,148.4,172.7,148.4z"/>
		<path class="st3" d="M130.8,91.7l0.1,0.2c0,0,0-0.1,0-0.1C130.9,91.8,130.9,91.7,130.8,91.7z"/>
		<path class="st3" d="M162.6,146.7C162.6,146.7,162.6,146.7,162.6,146.7C162.6,146.8,162.6,146.8,162.6,146.7L162.6,146.7z"/>
		<path class="st3" d="M162.3,144.9c0.1,0.1,0.1,0.2,0.2,0.3C162.4,145.1,162.4,145,162.3,144.9z"/>
		<path class="st3" d="M131.7,90.5l-0.4-0.3C131.5,90.3,131.6,90.4,131.7,90.5z"/>
		<path class="st3" d="M154.7,127.3c0,0.1,0.1,0.1,0.1,0.2C154.8,127.3,154.7,127.3,154.7,127.3z"/>
		<path class="st3" d="M199.5,93.6c0,0,0.1-0.1,0.1-0.1C199.6,93.5,199.5,93.4,199.5,93.6z"/>
		<polygon class="st3" points="195.7,107.1 195.7,107.1 195.7,107.1 		"/>
		<path class="st3" d="M195.9,106.4c-0.2,0.2-0.2,0.5-0.2,0.7C195.8,106.9,195.9,106.7,195.9,106.4z"/>
		<path class="st3" d="M194.7,108.3C194.7,108.2,194.8,108.2,194.7,108.3C194.8,108.2,194.7,108.2,194.7,108.3z"/>
		<path class="st3" d="M203.3,97.3C203.3,97.3,203.3,97.3,203.3,97.3C203.3,97.3,203.3,97.3,203.3,97.3L203.3,97.3z"/>
		<path class="st3" d="M201.6,99.5c-0.1,0-0.1,0.1-0.2,0.1C201.5,99.6,201.6,99.5,201.6,99.5z"/>
		<path class="st3" d="M191.3,114.3L191.3,114.3L191.3,114.3C191.3,114.3,191.3,114.3,191.3,114.3z"/>
		<path class="st3" d="M179.2,137.3c1.2-2.3,2.4-5.5,3.9-7.7c-0.1-0.7,0.4-1.4,0.7-2.2l0.5,0.2l0.2-0.7c0.3-0.2-0.2,0.5,0.2,0.2
			l-0.1-0.4c0.2,0,1-1.5,0.7-0.3c0.5-0.8,0.9-1.5,1.4-2.3c0.3-0.5-0.2-0.5,0.3-1c0.2,0,0,0.3,0.1,0.3c1.4-1.5,0.3-2.4,1.5-3.9l0,0.2
			c0-0.3,0.4-0.8,0.3-0.9c-0.6-0.1,0.1,0.4-0.5,0.7c-0.3-0.3,0.2-0.7-0.1-0.9c0.4-0.3,0.3-0.6,0.5-1c0.6-0.4,0.9-1.3,1.4-1.5
			c0.1-0.3-0.1-0.9,0.2-1.4c0.5-0.2,0.2,0.3,0.7-0.2l-0.2-0.2c0.3-0.4,0.3-0.3,0.4-0.2c0.3-0.5,0-0.6,0.5-1.1l0,0.5
			c0.2-0.5,0.4-0.7,0.8-1.3c0.1,0.1-0.1,0.3-0.2,0.5c0.5-0.1,0.2-0.7,0.4-0.8c-0.1,0-0.4,0.4-0.5,0c0.2-0.3,0.1-0.8,0.5-0.9l0,0.5
			c0.3-0.7,0-0.5,0.5-1.2c0,0.1,0.1,0.1,0.1,0.1c0-0.7,0.7-1.1,1.2-1.7l0,0.2c0.1-0.3,0-0.6,0.2-0.7c-0.4,0.3-0.4,0.2-0.6,0.1
			c0.7-0.3,0.2-1.1,0.9-1.7c0.1,0.1,0.1,0.4-0.2,0.5c0.1,0.5,0.4,0.8,0.2,1.4c0.1-0.4,0.4-0.8,0.4-0.6l-0.3-0.3
			c0.1-0.2,0.3-0.3,0.4-0.5c-0.1-0.2-0.6,0.1-0.4-0.4c0.2-0.6,0.5,0,0.4-0.2c0.4-0.8-0.1-0.5,0.4-1.1c0,0.1-0.1,0.3-0.1,0.3
			c0.5-0.4,0.8-1.2,1.2-1.1c0,0.1,0.1,0.2,0,0.4l-0.1,0c-0.1,0.7,0.2-0.5,0.5-0.1c-0.2-0.1,0.3-0.7,0.5-1l-0.3-0.1
			c0-1.5,0.4,0.4,1-0.6c0.3-0.7-0.2,0.2-0.1-0.3c0.4-0.4,0.7-0.4,1-1.1c0.2-0.1,0.6-0.3,0.9-0.2c0.2-0.4,1-1,0.9-1.4
			c-0.7,0.5-0.2,0.8-1.1,1.3l-0.1-0.4c0.4-0.5,0.8-1.2,1.1-1.5c-0.1,0-0.2,0-0.2-0.1c0.5-0.8,0.4-1.2,1-1.8c0.3,0.1-0.1,0.5-0.3,0.8
			c0.5-0.3,0.4-0.5,1-1.1c0.2,0.1-0.4,0.5-0.2,0.7l0.5-0.8c0,0,0,0,0,0c-0.3-0.4,0.5-0.6,0.8-1.1c0.9-1.1,0.6-1.6,0.8-2.4
			c0.2-0.1,0.3-0.1,0.4,0.1c-0.4,0.1-0.2,0.2-0.2,0.4c0.3-0.4,1-0.5,1-0.2c0.4-0.7-0.3,0.1-0.2-0.4l0.7-0.8c-0.2,0-0.5,0.2-0.3-0.3
			c0.2-0.4,0.4-0.5,0.8-1c0,0.1,0.4,0.1,0.1,0.4c0.2-0.2,0.5-0.5,0.5-0.8c-0.6,0.4,0.5-0.9,0-0.8l0.6-0.4c-0.1,0.1,0,0.2-0.2,0.4
			c0.4,0.1,0.3-0.5,0.4-0.7c0.2-0.1,0.6-0.6,0.7-0.5c0.1-0.2,0.5-0.5,0.6-0.5c0.2-0.3-0.1-0.2-0.2-0.3l0.7-0.8
			c0.2,0.1,0.6,0.4,0.6,0.5c0.1-0.4-0.3-0.5,0.1-0.9c0,0.5,0.7-0.4,0.7,0.2c0.4-0.1,1.1-0.8,1.3-1.3c0-0.4-0.5,0.3-0.7,0.1
			c0.9-1.2,0.4-1.8,1.2-2.5l-0.3,0.2c0.3-0.6,0.3-0.5,0.4-1c0.1,0.4,1.2,0.1,2-0.8c-0.1-0.2-0.7,0.2-0.8-0.1l0.5-0.6
			c0.1,0,0,0.1,0,0.2c0.4-0.6,1.2-0.6,1-1l0.8-0.1l-0.3,0c-0.1-0.2,0.4-0.8,0.5-0.9c0.4-0.7,0.7-0.8,1.2-0.9c-0.2,0-0.7,0-0.3-0.5
			c0.4,0.4,1-0.7,1.3-0.5c0.2-0.2,0.6-0.3,0.5-0.5l0.2,0.3c-0.3-0.4,0.4-1,0.8-1.5c0.4,0.6,0.5-0.5,1.2-0.3c-0.2-0.4,0.8-1,0.6-1.3
			c0.4-0.4,0.6,0,0.8,0l0.1-0.3c0.3,0,1.1-0.7,1.6-1c0-0.2,0.1-0.5,0.1-0.7l0.3,0c0-0.1,0.3-0.5,0-0.4l0.2-0.2
			c-0.3-0.4,0.2-0.4,0.6-0.9c0.2,0,0.2,0.1,0.1,0.2c0.2-0.2,0.3,0.1,0.5,0.1c-0.2,0,0.3-1.3-0.5-0.9c-0.2-0.1,0.1-0.5,0.4-0.6
			l0.4,0.2l0-0.5c0.3-0.3,0.6-0.3,0.9-0.5c-0.3,0.3-0.1,1.1,0.6,0.5c-0.4,0.4-0.4,0.7-0.5,0.9c0.2-0.1,0.3-0.2,0.1,0.2
			c0.5-0.6,0-0.4,0.6-0.9c0.2,0.3,0.4,0.3,1-0.1l-0.5,0.1c0,0,0-0.1,0-0.1c-0.2,0.1-0.2,0.1-0.4,0c0.1-0.1,0.4-0.9,0.6-0.8
			c-0.9,0.1,0.7-1.2,0.1-1.1c0-0.1,0.4-0.5,0.5-0.4c-0.3,0.6,0.6,0,0.7,0.3c0.1-0.2-0.5,0.1-0.4-0.2c0.3-0.3,0.6-0.3,0.9-0.3
			l-0.1,0.1l0.6-0.2c0-0.2-0.6,0.1-0.3-0.3c0.2,0,0.5-0.4,0.6-0.3c0,0.3,0.3,0.5,0,0.8c0.3-0.2,1.2-1,0.6-1l0.4-0.3
			c-0.3,0-1.1,0.3-0.4-0.3l0,0.1l0.3-0.6l0.3,0c-0.1-0.1,0-0.2,0.2-0.3c0.1,0,0.3,0,0.4,0.1c0.5-0.4,0.4-0.5,0.4-0.7
			c0.3-0.2,0.4-0.3,0.4,0c0.4-0.3,1.1-0.9,1.5-0.9c0.4-0.5-0.2,0,0-0.4c0.4,0.1,0.9-0.2,1.4-0.6c0.5-0.4,1-0.9,1.5-1.2
			c-0.6-0.3,0.2-0.2,0.1-0.8c-0.1,0.3,1.1-0.3,0.4,0.4l0.5-0.4c0.5,0-0.7,0.7,0.1,0.7c0.5-0.4,0.6-1.1,1.3-1.4c0,0.5,0.4-0.5,0.5,0
			c-0.1,0.2-0.3,0.3-0.4,0.4l0.2,0c1.3-0.7,0.1-0.6,0.6-1.3c0.7-0.5,0.8-0.1,0.9,0c0.2,0,0.5-0.3,0.6-0.5c-0.3,0.5-1,0.4-0.9,0
			c0.6,0.1,1.1-0.7,1.2-1c-1.3,0.3-0.7,0.5-2,0.7c-0.1,0.2,0.2,0.5-0.5,0.8c0.3-0.4-0.1-0.2-0.3-0.1c0.2,0.1-0.4,0.4-0.5,0.6
			c-0.3,0,0.1-0.7-0.6-0.3l0.2,0.5c-0.3,0.1-0.1-0.4-0.6,0.1c0.1-0.4-0.3-0.3,0.3-0.8c-1.1,0.2-1.1,1.1-1.6,1.7c0-0.1,0-0.1,0.1-0.2
			c-0.1,0.2-0.3,0.4-0.5,0.5c-0.5,0.2,0.2-0.4,0-0.5l-0.7,0.5c0,0,0,0,0,0c-0.1,0.2-0.3,0.3-0.4,0.3c0.1-0.3,0.1-0.5,0.1-0.7
			l-0.5,0.8c0-0.2-0.8,0.2-0.3-0.3l-1,0.8l-0.3-0.2c-0.2,0.2-0.2,0.3,0.1,0.1c-0.4,0.2-1.2,1.7-1.4,1c-0.6,0.9-1,1-1.8,1.9
			c0.5-0.8-1.1,0.3-0.4-0.4c-0.6,0.2-0.4,0.6-0.7,0.9c-0.4,0.1-0.5-0.3-0.2-0.6l-0.3,0.5l0-0.1l-0.3,0.5c-0.5,0.2-0.3-0.2-0.8,0.1
			l0.1,0.3l-0.4,0.1c0.2,0,0,0.3-0.3,0.5l0-0.1l-0.3,0.3c0.2-0.4-0.4,0.2-0.4-0.1c-0.3,0.2-0.3,0.3-0.8,0.8l0.2,0.1
			c-0.6,0.7-0.2-0.2-0.8,0.2l0.2,0.2c-1.1,0.4-1.2,1.4-2,1.7c0.3-0.3,0-0.5,0.1-0.4c-0.5,0.5-1.4,1.2-1.7,1.9
			c-0.4-0.1-0.6-0.1-1.2,0.2c-0.4,0.4-0.4,0.5-0.4,0.7c-0.5,0.2-1,1.1-1.2,0.9c0.1,0.2-0.4,0.3-0.5,0.6l-0.1,0l0.2,0.2
			c-1.1,0.2-0.9,1.3-1.9,1.6l0.1-0.2l-0.2,0.3c-0.1,0-0.1-0.2-0.1-0.3c-0.4,0.4-0.9,0.8-1.3,1.2l0.4-0.1c-0.3,0.3-0.3,0.6-0.7,0.8
			c0.2-0.8-0.4,0.4-0.7,0.3l0.2-0.3c-0.4,0.4-0.4,0.4-0.1,0.5c-0.4,0.6-0.7,0-0.9,0.6l0.3-0.3c0.2,0,0.1,0.4-0.1,0.6
			c-0.1,0-0.3,0.1-0.2-0.1c-0.3,0.5-1,0.9-1.1,1.2c-0.3,0.2-0.3,0-0.3-0.2c-0.7,1-0.4,0.3-1.1,1.3l-0.1-0.1l-0.2,0.4l-0.6,0.2l0.3,0
			c-0.2,0.3-0.3,0.5-0.7,0.8l0-0.3c-0.7,0.9-1.1,0.7-1.6,1.6c-0.1,0,0-0.1,0-0.2c-0.4,0.9-0.8,0.3-1.1,1.3c0-0.1-0.2-0.1-0.2-0.1
			l-0.2,0.4l-0.2-0.2l0.1,0.5l-0.4,0l0,0.2c-0.7,0-0.9,0.7-1.6,0.9l0.3,0.2c-0.5,1.7-2.7,2.5-3.7,4.2l-0.2-0.2l-0.2,0.8
			c-0.4,0.2,0-0.4-0.2-0.3c-0.4,0.8,0.1,0.5-0.5,1.4c-0.5,0.3-0.1-0.3,0-0.5c-0.5,0.8-1.2,2-1.8,2.4c0,0,0,0.1,0.1,0.1
			c-0.3,0.6-0.9,1.1-1.3,1.7c-0.1-0.1,0-0.2,0.1-0.4c-0.2,0.2-0.4,0.4-0.5,0.6l0-0.4c-0.4,0.4-0.8,1.3-1.1,1.2c0.1,0,0.3,0.2,0,0.5
			c-0.5-0.1-0.6,1.1-1.2,1.5c0-0.1,0.3-0.6,0.2-0.5c-0.3,0.2-0.3,0.6-0.4,0.9l-0.1-0.2l-0.8,1.5c-0.5-0.1-0.9,1.3-1.1,1.1
			c-0.4,0.5,0.5-0.3,0.1,0.4c-0.3,0.1-0.3,0.6-0.5,0.4l0-0.1l-0.3,0.5l0-0.4c-0.2,0.4-0.2,0.9,0,1c-0.4,0.3-0.6,0.8-1,0.9l0-0.2
			c-0.6,1.1-1.8,1.2-2,2.3c-0.1,0-0.1,0,0-0.1l-0.5,0.6l-0.1-0.3c-0.2,0.4-0.3,0.8-0.4,1.2l-0.1-0.1c-0.5,0.7-1.2,1.8-1.7,2.7l0-0.2
			c-0.5,1.1-0.7,0.9-1.1,1.7c0,0,0-0.1,0-0.1l-0.4,0.6l0-0.2c-0.1,0.6-1.2,1.1-0.8,1c-0.1,0.3-0.2,0.9-0.1,1.1
			c-0.4,0.7-0.3,0.1-0.6,0.4c-0.3,0.5-0.2,0.7-0.7,1.4l-0.1-0.1c-0.2,0.3-0.2,0.6-0.5,1.1l0-0.2c-0.2,0.9-0.9,0.7-0.8,1.6
			c-0.3,0.2-0.6,0.9-0.8,0.7c-0.4,1-0.8,1.8-1.2,2.8c-0.5-0.1-0.1,0.2-0.7,0.6l0.2,0.1c-0.7,1.3-2.2,2.5-2.9,4l-0.2-0.1l0.1,0.4
			c-1,1.5-2.2,3.5-2.9,4.8c-0.1,0.5-0.2,1.3-0.6,1.9l0-0.1c-0.5,1.2-1.1,2.5-1.9,3.7c-0.1-0.1-0.2,0-0.2-0.2c0.1,0.4-0.4,0.7-0.5,1
			l0.3-0.2c0,0.5-0.4,0.9-0.7,1l-0.1,0.7c0,0-0.1,0.1-0.1,0.1l0.1,0.2l-0.5,0.1c0,0.2-0.3,1-0.2,1.3c-0.1,0-0.5,0.5-0.3,0.1l-1.2,2
			l0.3-0.3c0.2,0.1,0.1,0.8-0.2,1c0-0.5-0.3-0.2-0.6-0.1c0,0.3,0.3-0.1,0.4,0.1c0,0.4-0.3,1.2-0.5,1.4l0-0.3c-0.2,0.5-0.7,0.5-0.9,1
			c0,0.5-0.4,0.8,0.1,0.9c-0.2,0.7-0.4,0.1-0.5,0.3c0,0.4-0.5,1.2-0.8,1.2c0.1,0.2,0.1,0.3,0,0.5c0,0.1-0.1,0.2-0.1,0.3
			c0,0,0,0-0.1,0c-0.1,0-0.2,0,0,0.2c-0.1,0-0.2-0.1-0.3-0.1c0.1,0.1,0.3,0.4,0.3,0.6c-0.1-0.1-0.3-0.3-0.4-0.5
			c0.1,0.2,0.2,0.4,0.3,0.6c-0.2,0-0.3,0-0.5,0.1c-0.1,0.1-0.2,0.3-0.2,0.2c0-0.2,0-0.4,0-0.6c-0.1,0.2-0.3,0.4-0.3,0l0-0.1
			c0-0.1,0-0.3,0-0.4c0,0.1-0.1,0.3-0.1,0.4c-0.1,0-0.1,0.1-0.2,0c0-0.3,0.1-0.5,0.1-0.7c0,0,0-0.1,0-0.1l-0.2-0.7
			c-0.2-0.5-0.4-0.9-0.6-1.3c-1-1,0.2-1-0.6-1.9c0.1,0.1,0.2,0.1,0.3,0.1c-0.6-1.1-1-1.7-1.8-2.8c0.6-0.1-0.3-0.8,0-0.8l-0.3,0
			c0-0.3-0.2-1,0.1-0.9l-0.5-0.4l0.2-0.1c-0.3-0.7-1.1-2.1-0.7-2.7c-1-1.6-2.1-4.4-2.9-6.6c-0.3-0.2-0.6-0.8-0.9-1.3l0-0.6
			c-0.3-0.5-0.9-0.8-0.9-1.4c0,0,0.1,0,0.1,0c-0.3-0.5-0.4-1-0.8-1.4c-0.2-0.6-0.3-1.2,0-1.1c-0.5,0.2-0.5-1.2-0.5-1.2
			s-3-7.2-7.5-14.8c-4.4-7.6-10.2-15.5-13.5-17.7c-0.3-0.1-0.9-0.5-1-0.2c-0.4-0.4-0.2-0.8-0.4-0.8c0.3,0.7-0.7,0.2-0.5,1l-0.3-0.3
			c-0.2,0,0.5,0.4,0.2,0.5l0.5-0.2c0.2,0.3,0.2,0.6,0.1,0.8c0.4,0.2,1,0,1.3,0.8l-0.2-0.2c0.4,0.5,0,0.5,0,0.7L132,93l0.1,0.6
			c-0.1-0.4-0.8-0.8-0.6-0.5c0.4,0.7,0-0.2,0.4,0.2c0.2,0.3,0,0.4-0.2,0.4l0.4,0.5c-0.2,0.1-0.2-0.4-0.3,0l0.7,0.6
			c-0.4,0.4,0.7,0.6,0.5,1.2c-0.4-0.4-0.1,0.1-0.3,0.2l0.9,1.2c0,0.2-0.4-0.2-0.2-0.1c0,0.3,0.4,0.3,0.5,0.4
			c-0.1,0.2,0.6,0.9,0.3,1.1c0.4,1,0.6,0.1,1,1c-0.1,0.2-0.5-0.6-0.4-0.1l0.6,0.8c-0.1,0-0.4,0-0.6-0.3c1.2,2.4,1,4.2,2.5,6.1
			c0,0.4-0.3-0.1-0.6-0.2c1.2,1.3,0.8,2.4,1.6,3.7l0.2-0.1c0.5,2.1,2.1,4.1,2.9,6.3l0-0.3c0.3,0.2,0.6,0.6,0.9,0.9
			c-0.1,0.1-0.5,0-0.1,0.5c0-0.2-0.1-0.4,0.1-0.4c0.5,2,2.5,5.7,3.7,8.8c2.1,3.9,3.7,8.5,5.5,12.5c-0.3-0.6,0.3-0.6,0.4,0
			c-0.3,1.6,1,2.2,1,3.7c1.2,2.3,1.3,4.7,2.8,6.7l-0.2,0.1c0,0.4,0.2,0.4,0.4,0.7l-0.1,0c0.1,0.4,0.3,0.9,0.5,1.3
			c0.2,0.4,0.3,0.6,0.5,1.3l0.3-0.1c0.3,0.9,0,0.6,0.4,1.5l-0.1,0.1l0.6,0.9c-0.2,0.1,0,0.8,0.3,1.6c0.3,0.8,0.6,1.6,0.7,2.1
			c0.5,1.2,1.4,3.1,1.9,5.1c0,0.8,0.8,3.1,1.2,4.9c0.2,0.5,0.4,1.1,0.7,1.9c1.2-2.5,2.6-5.6,4-8.3l-0.1-0.5l0.4-0.9
			c0,0.1,0.1,0.1,0,0.2c0.2-0.1,0.5-0.6,0.7-1.2c0.2-0.6,0.4-1.2,0.7-1.4c-0.4,0.1-0.3,0.6-0.6,1.1c-0.4,0.5-0.2-0.6,0.3-1.3l0,0.1
			l0.2-0.8c0.2,0.2,0.5-0.3,0.7-0.1c0.7-1.5,1.2-2.9,1.8-4.2c0.1-0.1,0.2-0.4,0.2-0.4l0.1-0.3c0.1-0.2,0.1-0.3,0.2-0.5
			c0.2-0.4,0.3-0.7,0.6-1.1c0.2,0.3,0.5-1.2,0.8-0.6c0.3-1-0.4,0-0.5-0.6c0.1-0.3,0.2-0.6,0.3-0.6c0,0.2,0.4-0.1,0.3,0.2l0.3-0.7
			c0.1,0,0.1,0.1,0,0.2c0.4-1.4,1.4-2.1,1.8-3.4c-0.1-0.2-0.3,0.4-0.4,0.3c0.3-1.3,0.8-0.9,1.2-2.1l0.1,0.3c0-0.4-0.1-0.7,0.4-1.2
			c0.3,0,0,0.6-0.1,0.9c0.2-0.4,0.7-1.4,0.3-1.2c0.2-0.5,0.5-0.6,0.7-0.8c-0.1,0-0.4,0.3-0.4,0c0.5-0.6,1-1.6,1.4-2.3
			c0.1,0,0.2,0,0.2,0.1C178.3,137.8,178.8,138.2,179.2,137.3z"/>
		<path class="st3" d="M203.5,97l-0.3,0.3c0.1,0,0.1,0.1,0.1,0.3L203.5,97z"/>
		<path class="st3" d="M193.4,110.6c0,0.1,0,0.1,0,0.2C193.4,110.6,193.4,110.6,193.4,110.6z"/>
		<path class="st3" d="M191.6,114.3c0.1-0.3-0.1-0.1-0.2,0C191.4,114.3,191.4,114.3,191.6,114.3z"/>
		<path class="st3" d="M209.1,89.1c0,0.1,0,0.1,0,0.2C209.1,89.2,209.1,89.2,209.1,89.1z"/>
		<path class="st3" d="M228,70.6c0,0-0.1,0-0.1,0C227.9,70.6,227.9,70.6,228,70.6z"/>
		<path class="st3" d="M226.5,71.2c-0.1,0-0.1,0.1-0.2,0.2C226.4,71.4,226.5,71.3,226.5,71.2z"/>
		<path class="st3" d="M205,94.1c-0.1,0.1-0.1,0.2-0.1,0.3C205,94.3,205,94.2,205,94.1z"/>
		<path class="st3" d="M226.1,71.7l-0.3,0.2c0,0,0,0,0,0L226.1,71.7z"/>
		<path class="st3" d="M228.3,70.3c-0.1,0.1-0.3,0.2-0.4,0.3C228.1,70.5,228.3,70.5,228.3,70.3z"/>
		<path class="st3" d="M215.4,81.7L215.4,81.7C215.2,82,215.3,81.9,215.4,81.7z"/>
		<polygon class="st3" points="225.3,73.1 225.2,73.1 225.2,73.3 		"/>
		<path class="st3" d="M229.6,69.4c0,0.1-0.1,0.1-0.1,0.2C229.6,69.5,229.6,69.5,229.6,69.4C229.7,69.4,229.6,69.4,229.6,69.4z"/>
		<path class="st3" d="M219.6,78c0-0.1,0-0.2-0.1-0.3C219.4,77.9,219.4,78,219.6,78z"/>
	</g>
</g>
<g id="Layer_2" class="st0">
	<path class="st4" d="M158.4,169.3c-1.7-4.4-3.8-9.6-6.2-15.7c-2.4-6.1-5-12.6-7.8-19.4c-2.8-6.8-5.6-13.7-8.5-20.8
		c-2.9-7.1-5.7-13.8-8.4-20.1c1,0.1,2,0.3,3,0.4c1,0.1,1.9,0.2,2.8,0.2s1.8-0.1,2.8-0.2c1-0.1,2-0.2,3-0.4c1.6,4.9,3.4,10,5.4,15.3
		c2,5.3,4,10.8,6.2,16.3c2.2,5.5,4.4,11.1,6.7,16.8c2.3,5.7,4.6,11.3,7,16.9c1.3-3,2.8-6.4,4.3-10.1c1.5-3.7,3.1-7.6,4.7-11.6
		c1.6-4,3.2-8.1,4.7-12.3c1.5-4.2,3-8.2,4.5-12c1.4-3.8,2.7-7.4,3.9-10.7c1.2-3.3,2.2-6.2,3-8.6c1.6,0.4,3,0.6,4.1,0.6
		c1.1,0,2.5-0.2,4.1-0.6c-5.8,12.8-11.3,25.6-16.6,38.2c-5.3,12.6-10.4,25.2-15.3,37.8c-1.2-0.1-2.4-0.2-3.7-0.2
		C160.6,169.1,159.4,169.2,158.4,169.3z"/>
</g>
</svg>
